<?xml version="1.0" encoding="UTF-8" standalone="no"?>
<!-- Created with Inkscape (http://www.inkscape.org/) -->

<svg
   version="1.1"
   id="svg38600"
   width="880"
   height="880"
   viewBox="0 0 880 880"
   sodipodi:docname="soya-beans-clipart-pdv.svg"
   inkscape:version="1.2 (dc2aedaf03, 2022-05-15)"
   xmlns:inkscape="http://www.inkscape.org/namespaces/inkscape"
   xmlns:sodipodi="http://sodipodi.sourceforge.net/DTD/sodipodi-0.dtd"
   xmlns="http://www.w3.org/2000/svg"
   xmlns:svg="http://www.w3.org/2000/svg">
  <defs
     id="defs38604">
    <clipPath
       clipPathUnits="userSpaceOnUse"
       id="clipPath38616">
      <path
         d="M 0,660 H 660 V 0 H 0 Z"
         id="path38614" />
    </clipPath>
  </defs>
  <sodipodi:namedview
     id="namedview38602"
     pagecolor="#ffffff"
     bordercolor="#000000"
     borderopacity="0.25"
     inkscape:showpageshadow="2"
     inkscape:pageopacity="0.0"
     inkscape:pagecheckerboard="0"
     inkscape:deskcolor="#d1d1d1"
     showgrid="false"
     inkscape:zoom="0.95113636"
     inkscape:cx="441.05137"
     inkscape:cy="440.52569"
     inkscape:window-width="1920"
     inkscape:window-height="1017"
     inkscape:window-x="-8"
     inkscape:window-y="-8"
     inkscape:window-maximized="1"
     inkscape:current-layer="g38608">
    <inkscape:page
       x="0"
       y="0"
       id="page38606"
       width="880"
       height="880" />
  </sodipodi:namedview>
  <g
     id="g38608"
     inkscape:groupmode="layer"
     inkscape:label="Page 1"
     transform="matrix(1.3333333,0,0,-1.3333333,0,880)">
    <g
       id="g38610">
      <g
         id="g38612"
         clip-path="url(#clipPath38616)">
        <g
           id="g38618"
           transform="translate(341.1172,80.7402)">
          <path
             d="m 0,0 c 136.592,0 247.996,45.807 247.996,101.97 0,56.161 -111.404,101.967 -247.996,101.967 -136.591,0 -247.998,-45.806 -247.998,-101.967 C -247.998,45.807 -136.591,0 0,0"
             style="fill:#e6e6e6;fill-opacity:1;fill-rule:evenodd;stroke:none"
             id="path38620" />
        </g>
        <g
           id="g38622"
           transform="translate(206.7217,95.6943)">
          <path
             d="M 0,0 C 30.153,23.829 50.356,54.552 67.976,81.827 11.898,63.643 -63.096,59.726 -125.889,66.719 c 139.331,74.975 256.794,192.326 342.413,371.369 56.232,38.605 112.464,77.211 168.69,115.817 6.715,-16.365 13.428,-32.733 20.143,-49.096 C 349.128,482.149 292.899,459.49 236.668,436.831 267.414,160.43 166.984,10.254 0,0"
             style="fill:#a7bf1c;fill-opacity:1;fill-rule:evenodd;stroke:none"
             id="path38624" />
        </g>
        <g
           id="g38626"
           transform="translate(443.3896,532.5239)">
          <path
             d="M 0,0 C 30.743,-276.403 -69.684,-426.573 -236.668,-436.833 -75.108,-397.038 6.292,-254.639 0,0"
             style="fill:#94ab13;fill-opacity:1;fill-rule:evenodd;stroke:none"
             id="path38628" />
        </g>
        <g
           id="g38630"
           transform="translate(431.3936,520.2588)">
          <path
             d="m 0,0 c -70.857,-145.137 -169.73,-264.02 -306.334,-347.678 49.025,-1.446 102.246,3.47 145.567,17.513 l 17.667,5.73 C -60.074,-256.541 -10.845,-150.14 0,0"
             style="fill:#687a05;fill-opacity:1;fill-rule:evenodd;stroke:none"
             id="path38632" />
        </g>
        <g
           id="g38634"
           transform="translate(330.5977,111.2285)">
          <path
             d="m 0,0 c 23.297,0 42.298,18.998 42.298,42.298 0,23.3 -19.001,42.301 -42.298,42.301 -23.3,0 -42.301,-19.001 -42.301,-42.301 C -42.301,18.998 -23.3,0 0,0"
             style="fill:#94ab13;fill-opacity:1;fill-rule:evenodd;stroke:none"
             id="path38636" />
        </g>
        <g
           id="g38638"
           transform="translate(313.2861,131.9961)">
          <path
             d="M 0,0 C 16.365,0 29.713,13.348 29.713,29.713 29.713,46.072 16.365,59.421 0,59.421 -16.366,59.421 -29.711,46.072 -29.711,29.713 -29.711,13.348 -16.365,0 0,0"
             style="fill:#a7bf1c;fill-opacity:1;fill-rule:evenodd;stroke:none"
             id="path38640" />
        </g>
        <g
           id="g38642"
           transform="translate(405.8457,197.6885)">
          <path
             d="M 0,0 C 26.172,0 47.517,21.347 47.517,47.517 47.517,73.685 26.172,95.031 0,95.031 -26.169,95.031 -47.514,73.685 -47.514,47.517 -47.514,21.347 -26.169,0 0,0"
             style="fill:#94ab13;fill-opacity:1;fill-rule:evenodd;stroke:none"
             id="path38644" />
        </g>
        <g
           id="g38646"
           transform="translate(386.4033,221.0234)">
          <path
             d="M 0,0 C 18.383,0 33.373,14.993 33.373,33.373 33.373,51.754 18.383,66.747 0,66.747 -18.383,66.747 -33.376,51.754 -33.376,33.373 -33.376,14.993 -18.383,0 0,0"
             style="fill:#a7bf1c;fill-opacity:1;fill-rule:evenodd;stroke:none"
             id="path38648" />
        </g>
        <g
           id="g38650"
           transform="translate(450.2734,315.1172)">
          <path
             d="M 0,0 C 22.944,0 41.662,18.719 41.662,41.666 41.662,64.615 22.944,83.334 0,83.334 -22.95,83.334 -41.671,64.615 -41.671,41.666 -41.671,18.719 -22.95,0 0,0"
             style="fill:#94ab13;fill-opacity:1;fill-rule:evenodd;stroke:none"
             id="path38652" />
        </g>
        <g
           id="g38654"
           transform="translate(433.2217,335.5781)">
          <path
             d="m 0,0 c 16.117,0 29.267,13.148 29.267,29.267 0,16.12 -13.15,29.266 -29.267,29.266 -16.12,0 -29.267,-13.146 -29.267,-29.266 C -29.267,13.148 -16.12,0 0,0"
             style="fill:#a7bf1c;fill-opacity:1;fill-rule:evenodd;stroke:none"
             id="path38656" />
        </g>
        <g
           id="g38658"
           transform="translate(403.1123,419.29)">
          <path
             d="M 0,0 C 4.653,0 9.141,-0.713 13.356,-2.031 6.324,-32.79 -2.819,-61.136 -14.028,-87.133 c -17.81,5.883 -30.661,22.659 -30.661,42.44 C -44.689,-20.011 -24.682,0 0,0"
             style="fill:#7aed15;fill-opacity:1;fill-rule:evenodd;stroke:none"
             id="path38660" />
        </g>
        <g
           id="g38662"
           transform="translate(396.8105,415.4424)">
          <path
             d="m 0,0 c 7.946,0 13.999,-3.786 16.91,-9.651 -2.603,-10.376 -5.449,-20.473 -8.55,-30.279 -5.958,-5.51 -13.732,-9.033 -21.394,-9.033 -13.52,0 -21.564,10.959 -17.963,24.483 C -27.396,-10.961 -13.52,0 0,0"
             style="fill:#a5fc58;fill-opacity:1;fill-rule:evenodd;stroke:none"
             id="path38664" />
        </g>
        <g
           id="g38666"
           transform="translate(338.3311,331.6426)">
          <path
             d="M 0,0 C 16.892,0 31.736,-8.768 40.232,-22 26.568,-49.063 10.436,-73.32 -8.076,-94.857 -30.609,-91.018 -47.769,-71.4 -47.769,-47.77 -47.769,-21.388 -26.383,0 0,0"
             style="fill:#7aed15;fill-opacity:1;fill-rule:evenodd;stroke:none"
             id="path38668" />
        </g>
        <g
           id="g38670"
           transform="translate(331.5977,327.5303)">
          <path
             d="m 0,0 c 14.451,0 23.052,-11.717 19.202,-26.169 -3.848,-14.45 -18.684,-26.168 -33.136,-26.168 -14.451,0 -23.05,11.718 -19.202,26.168 C -29.287,-11.717 -14.451,0 0,0"
             style="fill:#a5fc58;fill-opacity:1;fill-rule:evenodd;stroke:none"
             id="path38672" />
        </g>
        <g
           id="g38674"
           transform="translate(264.7373,250.4941)">
          <path
             d="m 0,0 c 20.074,0 36.349,-16.276 36.349,-36.352 0,-2.793 -0.32,-5.514 -0.914,-8.129 -3.879,-3.485 -7.834,-6.887 -11.875,-10.189 L 5.887,-60.4 c -8.021,-2.6 -16.38,-4.887 -24.987,-6.878 -10.35,6.405 -17.25,17.859 -17.25,30.926 C -36.35,-16.276 -20.075,0 0,0"
             style="fill:#7aed15;fill-opacity:1;fill-rule:evenodd;stroke:none"
             id="path38676" />
        </g>
        <g
           id="g38678"
           transform="translate(259.6133,247.3643)">
          <path
             d="m 0,0 c 10.996,0 17.54,-8.916 14.611,-19.915 -2.928,-10.993 -14.217,-19.91 -25.214,-19.91 -10.996,0 -17.537,8.917 -14.611,19.91 C -22.285,-8.916 -10.996,0 0,0"
             style="fill:#a5fc58;fill-opacity:1;fill-rule:evenodd;stroke:none"
             id="path38680" />
        </g>
        <g
           id="g38682"
           transform="translate(389.084,332.1553)">
          <path
             d="M 0,0 C -12.827,4.238 -23.081,14.129 -27.815,26.725 -20.046,17.373 -8.538,11.242 4.413,10.624 2.978,7.04 1.509,3.498 0,0"
             style="fill:#68d10c;fill-opacity:1;fill-rule:evenodd;stroke:none"
             id="path38684" />
        </g>
        <g
           id="g38686"
           transform="translate(330.2549,236.7852)">
          <path
             d="M 0,0 C -16.893,2.876 -30.764,14.626 -36.65,30.286 -27.886,19.738 -14.674,13.02 0.112,13.02 c 4.018,0 7.913,0.5 11.638,1.431 C 7.945,9.502 4.029,4.689 0,0 m 44.842,77.593 c 1.248,-1.506 2.405,-3.087 3.461,-4.736 -0.449,-0.89 -0.893,-1.781 -1.349,-2.662 -0.509,2.544 -1.219,5.016 -2.112,7.398"
             style="fill:#68d10c;fill-opacity:1;fill-rule:evenodd;stroke:none"
             id="path38688" />
        </g>
        <g
           id="g38690"
           transform="translate(292.708,237.3535)">
          <path
             d="m 0,0 c 5.233,-6.296 8.378,-14.387 8.378,-23.211 0,-2.796 -0.314,-5.515 -0.911,-8.13 -3.882,-3.484 -7.837,-6.886 -11.881,-10.188 l -17.673,-5.731 c -8.018,-2.599 -16.377,-4.886 -24.983,-6.878 -6.786,4.202 -12.088,10.571 -14.937,18.144 6.668,-8.026 16.724,-13.138 27.974,-13.138 20.075,0 36.349,16.274 36.349,36.349 C 2.316,-8.283 1.497,-3.977 0,0"
             style="fill:#68d10c;fill-opacity:1;fill-rule:evenodd;stroke:none"
             id="path38692" />
        </g>
        <g
           id="g38694"
           transform="translate(443.3896,532.5239)">
          <path
             d="m 0,0 159.275,90.928 9.415,-22.95 z"
             style="fill:#94ab13;fill-opacity:1;fill-rule:evenodd;stroke:none"
             id="path38696" />
        </g>
      </g>
    </g>
  </g>
</svg>
